/* XPM */
static char * backround_xpm[] = {
"32 32 3 1",
" 	c #9BBC0F",
".	c #8BAC0F",
"+	c #FFFFFF",
"                            ....",
"                            ....",
"                            ....",
"                            ....",
"    ............................",
"    ............................",
"    ............................",
"    ............................",
"    ............................",
"    ............................",
"    ............................",
"    ............................",
"................................",
"................................",
"................................",
"................................",
"        ....                    ",
"        ....                    ",
"        ....                    ",
"        ....                    ",
"............    ................",
"............    ................",
"............    ................",
"............    ................",
"............    ................",
"............    ................",
"............    ................",
"............    ................",
"............    ................",
"............    ................",
"............    ................",
"............    ................"};
