/* XPM */
static char * collectible_xpm[] = {
"32 32 19 1",
" 	c #9BBC0F",
".	c #FFFF58",
"+	c #FFE244",
"@	c #8BAC0F",
"#	c #FFCF3D",
"$	c #FFE443",
"%	c #7B5A29",
"&	c #FFFF7E",
"*	c #FFFFA4",
"=	c #FEE761",
"-	c #FFFFFF",
";	c #FFFF72",
">	c #B27A24",
",	c #D5CB97",
"'	c #665C27",
")	c #C6B974",
"!	c #B2A144",
"~	c #FFFFD5",
"{	c #000000",
"                .+          @@@@",
"             ...+#$$$%%     @@@@",
"           ..+++&&#####%    @@@@",
"          .++&&*&===-###%%  @@@@",
"    @@@@;++**&&&===----###%@@@@@",
"    @@@.++--*=====----==###%@@@@",
"    @@@.+---=====----===-##%@@@@",
"    @@.+--======----===-=-##%@@@",
"    @.+*=======----===--==-#>%@@",
"    .+#*======----=========##>%@",
"    +#*===****,-**=-****==='#>%@",
"    +#*===--**,-*)=-**!!==='#>%@",
"@@@+#&=====-**,-*)=-**!====='#>%",
"@@@+#-=====-**,-*)=-**!====='#>%",
"@@@+#-====---*,=*)=-*!======'#>%",
"@@@+#-===----*,=*)=-*!======'#>%",
"   +#--=-----**)*)-**!======'#>%",
"   +#--------**)*)-**!======'#>%",
"   +#------=-**)*)-~*!=====-'#>%",
"   +#-----==-**)*)-**!====-''>>%",
"@@@@$#---===-**)*)-**!===--'#>%@",
"@@@@$#---===-****)***!==---'#>%@",
"@@@@$##--====-******!==---'#>>%@",
"@@@@@$#--=====!****!==---''#>%@@",
"@@@@@@$#--=====!!!!==---''#>%@@@",
"@@@@@@@$#-==========---''#>%@@@@",
"@@@@@@@$##==-======---''#>>%@@@@",
"@@@@@@@@$$#==-====---''#>>%@@@@@",
"@@@@@@@@@@$##'''=-'''##>>%@@@@@@",
"@@@@@@@@@@@$$###''###>>%%@@@@@@@",
"@@@@@@@@@@@@ >>>##>>>%%@@@@@@@@@",
"@@@@@@@@@@@@    >>%%%@@@@@@@@@@@"};
