/* XPM */
static char * door_xpm[] = {
"32 32 10 1",
" 	c #1D131E",
".	c #62351C",
"+	c #3E2613",
"@	c #744B30",
"#	c #2B1C1D",
"$	c #2E2533",
"%	c #726B7E",
"&	c #46425D",
"*	c #B19998",
"=	c #FFFFFF",
" ...+....+...+....+...+....+... ",
" ...+....+...+....+...+....+... ",
" ...+....+...+....+...+....+... ",
" ...+....+...+....+...+....+... ",
" ...+....+...+....+...+....+... ",
" ...+@@@@+...+@@@@+...+@@@@+... ",
" ...+@@@@+...+@@@@+...+@@@@+... ",
" .............................. ",
" ..@.......@........@.......@.. ",
" .+.######.+.######.+.######.+. ",
" ...#+..+#...#+..+#...#+..+#.$. ",
" ...+....+...+....+...+....+ %  ",
" ...+....+...+....+...+....+    ",
" ...+....+...+....+...+....+$&$ ",
" ...+....+...+....+...+....+ *  ",
" ...+....+...+....+...+....+ *  ",
" ...+@@@@+...+@@@@+...+@@@@+$%$ ",
" ...+@@@@+...+@@@@+...+@@@@+$%$ ",
" ...........................$&$ ",
" ..@.......@........@....... &  ",
" .+.######.+.######.+.######    ",
" ...#+..+#...#+..+#...#+..+#... ",
" ...+....+...+....+...+....+... ",
" ...+....+...+....+...+....+... ",
" ...+....+...+....+...+....+... ",
" ...+....+...+....+...+....+... ",
" ...+....+...+....+...+....+... ",
" ...+@@@@+...+@@@@+...+@@@@+... ",
" ...+@@@@+...+@@@@+...+@@@@+... ",
" ..@.......@........@.......@.. ",
" .+........+........+........+. ",
" ############################## "};
