/* XPM */
static char * personaje_xpm[] = {
"32 32 24 1",
" 	c #9BBC0F",
".	c #8BAC0F",
"+	c #000000",
"@	c #FFFFFF",
"#	c #212121",
"$	c #F2F2F2",
"%	c #F7946A",
"&	c #FF996D",
"*	c #808080",
"=	c #AD4500",
"-	c #5B7F00",
";	c #FFD800",
">	c #630000",
",	c #010002",
"'	c #7F0000",
")	c #000201",
"!	c #EAEAEA",
"~	c #000004",
"{	c #563120",
"]	c #D3AC00",
"^	c #331300",
"/	c #000005",
"(	c #7A462E",
"_	c #010302",
"                            ....",
"                            ....",
"                            ....",
"                            ....",
"    ............................",
"    .........++++++++...........",
"    ........+++@@@@+++..........",
"    .......++++@#@#++++.........",
"    ......+++++$@@$+++++........",
"    .....+++++++$$+++++++.......",
"    ....+++++++$++$+++++++......",
"    ...++++++++++++++++++++.....",
".......++++++++++++++++++++.....",
"..........+%%%%+%%%+%%%+........",
"..........+%&&%+&&%+&&&+........",
"..........+%&&**&&&*&&&++++.....",
"        ..+============++-+     ",
"        ..+======++===+--@-;    ",
"        ...+==========--++-     ",
"        ...++========+;;+++     ",
"..........+>+>=======,>,+--+....",
"..........+'+>>=====>)',.++.....",
"...........+%+'>=!'>>~%,........",
"...........+%+''!!''')+.........",
"............+''{]]{'')..........",
"............ ^ //({'')..........",
"............ ^  /{''~...........",
"............  ^ _{''_...........",
"............  ^ .____...........",
"............    ................",
"............    ................",
"............    ................"};
