/* XPM */
static char * wall_xpm[] = {
"32 32 327 2",
"  	c #5F5843",
". 	c #5F5742",
"+ 	c #645D46",
"@ 	c #6C634C",
"# 	c #59513B",
"$ 	c #4D4430",
"% 	c #4D442F",
"& 	c #554D38",
"* 	c #4F4732",
"= 	c #5D543E",
"- 	c #605640",
"; 	c #675D46",
"> 	c #6E654E",
", 	c #756C54",
"' 	c #746B54",
") 	c #756D56",
"! 	c #6F6751",
"~ 	c #625B44",
"{ 	c #5D553F",
"] 	c #6E664E",
"^ 	c #6A6148",
"/ 	c #635A43",
"( 	c #645B44",
"_ 	c #69604A",
": 	c #635A45",
"< 	c #6A614B",
"[ 	c #635A44",
"} 	c #675E47",
"| 	c #655D45",
"1 	c #5D533D",
"2 	c #625943",
"3 	c #6D654E",
"4 	c #786F57",
"5 	c #766D56",
"6 	c #716951",
"7 	c #6A624B",
"8 	c #6E664D",
"9 	c #726A52",
"0 	c #6A614A",
"a 	c #665D47",
"b 	c #5F5741",
"c 	c #645C47",
"d 	c #70674F",
"e 	c #746B53",
"f 	c #716851",
"g 	c #6B624C",
"h 	c #645B45",
"i 	c #716850",
"j 	c #6A624A",
"k 	c #6C644C",
"l 	c #615942",
"m 	c #615943",
"n 	c #797158",
"o 	c #7A7158",
"p 	c #7C735B",
"q 	c #7E755D",
"r 	c #6B634C",
"s 	c #625A43",
"t 	c #5A513B",
"u 	c #696149",
"v 	c #6D644C",
"w 	c #6D644D",
"x 	c #786E56",
"y 	c #665E47",
"z 	c #605842",
"A 	c #605843",
"B 	c #675E49",
"C 	c #6F6650",
"D 	c #716950",
"E 	c #696049",
"F 	c #7E755C",
"G 	c #6F664F",
"H 	c #565039",
"I 	c #675E48",
"J 	c #645C46",
"K 	c #6B624B",
"L 	c #655D47",
"M 	c #6B644D",
"N 	c #665D46",
"O 	c #5C543E",
"P 	c #59523D",
"Q 	c #5C5540",
"R 	c #6E664F",
"S 	c #69624B",
"T 	c #676049",
"U 	c #5D5640",
"V 	c #5D563F",
"W 	c #5A533D",
"X 	c #5C533C",
"Y 	c #5F5640",
"Z 	c #5E5641",
"` 	c #615842",
" .	c #655C46",
"..	c #5D543F",
"+.	c #554C37",
"@.	c #5A533E",
"#.	c #69614B",
"$.	c #6C644D",
"%.	c #675F49",
"&.	c #5D5540",
"*.	c #574E39",
"=.	c #615742",
"-.	c #686049",
";.	c #635D47",
">.	c #5E5743",
",.	c #625B45",
"'.	c #675F48",
").	c #6B634A",
"!.	c #676046",
"~.	c #635B43",
"{.	c #655D46",
"].	c #5A503B",
"^.	c #5B533D",
"/.	c #5F5841",
"(.	c #68614A",
"_.	c #716A52",
":.	c #635B44",
"<.	c #6D664F",
"[.	c #786F58",
"}.	c #7B7259",
"|.	c #776E56",
"1.	c #736952",
"2.	c #6B634D",
"3.	c #6C644E",
"4.	c #675F4A",
"5.	c #605944",
"6.	c #655E47",
"7.	c #706750",
"8.	c #756D55",
"9.	c #544C37",
"0.	c #625B46",
"a.	c #736B54",
"b.	c #59513D",
"c.	c #504935",
"d.	c #6F674F",
"e.	c #6D654D",
"f.	c #655C45",
"g.	c #746B52",
"h.	c #6D654F",
"i.	c #7A7159",
"j.	c #81785F",
"k.	c #635C47",
"l.	c #66634A",
"m.	c #69664C",
"n.	c #6A634C",
"o.	c #5E5842",
"p.	c #59523C",
"q.	c #534B35",
"r.	c #726951",
"s.	c #6E654D",
"t.	c #80775C",
"u.	c #746C54",
"v.	c #706852",
"w.	c #777058",
"x.	c #726B55",
"y.	c #68614B",
"z.	c #68624B",
"A.	c #615C44",
"B.	c #534A36",
"C.	c #59513C",
"D.	c #635C46",
"E.	c #6F664E",
"F.	c #675E46",
"G.	c #695F49",
"H.	c #564F39",
"I.	c #5F5845",
"J.	c #69614A",
"K.	c #82795F",
"L.	c #857B61",
"M.	c #736B52",
"N.	c #665F49",
"O.	c #847B62",
"P.	c #7E765E",
"Q.	c #746D56",
"R.	c #665E49",
"S.	c #5B563D",
"T.	c #625A42",
"U.	c #696048",
"V.	c #736B53",
"W.	c #706850",
"X.	c #665E48",
"Y.	c #5E5740",
"Z.	c #605841",
"`.	c #5B523E",
" +	c #68604B",
".+	c #645C44",
"++	c #706950",
"@+	c #7D755B",
"#+	c #776E55",
"$+	c #676048",
"%+	c #625A44",
"&+	c #726B52",
"*+	c #756E56",
"=+	c #787057",
"-+	c #6B644C",
";+	c #655D48",
">+	c #716A51",
",+	c #6C634B",
"'+	c #736A53",
")+	c #766D55",
"!+	c #685F49",
"~+	c #665E46",
"{+	c #756D54",
"]+	c #645C45",
"^+	c #6C634D",
"/+	c #746D54",
"(+	c #68604A",
"_+	c #67604A",
":+	c #5E563F",
"<+	c #5A543F",
"[+	c #58503B",
"}+	c #655B46",
"|+	c #574E37",
"1+	c #5A533C",
"2+	c #6B624A",
"3+	c #6F654E",
"4+	c #766C54",
"5+	c #736A52",
"6+	c #605742",
"7+	c #5B523D",
"8+	c #544B35",
"9+	c #584F3A",
"0+	c #574F39",
"a+	c #6B614B",
"b+	c #625A45",
"c+	c #5C543D",
"d+	c #6F654F",
"e+	c #6C624C",
"f+	c #605743",
"g+	c #7E755B",
"h+	c #7B7159",
"i+	c #5E553F",
"j+	c #5C553F",
"k+	c #554D3A",
"l+	c #837A61",
"m+	c #80775E",
"n+	c #847A61",
"o+	c #5E5640",
"p+	c #605943",
"q+	c #534C36",
"r+	c #514833",
"s+	c #5B533E",
"t+	c #635C45",
"u+	c #5C553E",
"v+	c #726850",
"w+	c #665F48",
"x+	c #5E5741",
"y+	c #666049",
"z+	c #6C654C",
"A+	c #6A624C",
"B+	c #6C654F",
"C+	c #645D48",
"D+	c #6E6751",
"E+	c #655F46",
"F+	c #635C43",
"G+	c #625942",
"H+	c #645B43",
"I+	c #5A523D",
"J+	c #756C55",
"K+	c #7D755C",
"L+	c #4A432E",
"M+	c #57503B",
"N+	c #6F6750",
"O+	c #797057",
"P+	c #6F6951",
"Q+	c #655E48",
"R+	c #776E57",
"S+	c #7B725A",
"T+	c #706951",
"U+	c #726A51",
"V+	c #776F56",
"W+	c #534D38",
"X+	c #685F48",
"Y+	c #7B7359",
"Z+	c #615844",
"`+	c #635E46",
" @	c #6E6850",
".@	c #534B36",
"+@	c #58503C",
"@@	c #726952",
"#@	c #59533D",
"$@	c #5D5541",
"%@	c #80775D",
"&@	c #665E4A",
"*@	c #706851",
"=@	c #6B654F",
"-@	c #655E49",
";@	c #67634B",
">@	c #625D46",
",@	c #564D39",
"'@	c #5B533C",
")@	c #5D543D",
"!@	c #5F5641",
"~@	c #544D39",
"{@	c #7F765C",
"]@	c #6C6450",
"^@	c #69624D",
"/@	c #68614E",
"(@	c #615A45",
"_@	c #636047",
":@	c #554F39",
"<@	c #5A523B",
"[@	c #58513A",
"}@	c #6F684F",
"|@	c #5E5540",
"1@	c #5E573F",
"2@	c #797159",
"3@	c #69634C",
"4@	c #766D54",
"5@	c #6D664D",
"6@	c #6F6851",
"7@	c #665F4A",
"8@	c #635B45",
"9@	c #6E6750",
"0@	c #645D45",
"a@	c #675F47",
"b@	c #685E47",
"c@	c #746C53",
"d@	c #887E64",
"e@	c #716952",
"f@	c #615843",
"g@	c #6F6850",
"h@	c #7F755C",
"i@	c #716751",
"j@	c #6B634B",
"k@	c #6E654C",
"l@	c #686149",
"  . + @ # $ % & * = - ; > , ' ) ! ~ # { ] ^ / ( _   . + @ # $ % ",
": < [ } | 1 2 ( 3 4 5 6 7 8 9 0 a b c d e , f g h : < [ } | 1 2 ",
"> i _ j k l m n o , p q ' r s t u v w x y y z A B > i _ j k l m ",
"C D E y F G H I r J J K w K a L M 0 0 w N O P Q L C D E y F G H ",
"R S T M U V W t X Y Z `  ...+.@.#.$.%.U &.*.=.-.$.R S T M U V W ",
"#.;.>.,.'.).!.~.{.].^./.(._.r $.~ :.<.[.}.|.1.D 2.#.;.>.,.'.).!.",
"3.' 4.5.6.(.S 7.8.0 { 9.0.a._.b.c.&.d.e.f.h g.n h.3.' 4.5.6.(.S ",
"i.j._.k.l.m.n.c o.6.p.q.y r.4 w + $.4.s.@ E t.u.3 i.j._.k.l.m.n.",
"v.w.x.y.z.A.^.B.C.D.E.v F.G.: { H.@.I.J.6 K.L.M.N.v.w.x.y.z.A.^.",
"O.P.Q.R.V S.{ T.U.s.V.W.X.Y.Z.+ ^.`. +< .+s ++u.@+O.P.Q.R.V S.{ ",
"%.2 ,.6.$.N Y #+7.| $+%+` u &+*+=+-+;+z.C.{ >+> s.%.2 ,.6.$.N Y ",
"e ,+Z.@ ] U.'+)+0 !+u ~+] 8.{+-.[ T _  .]+X.^+/+|.e ,+Z.@ ] U.'+",
"0 } (+6 _+ .E.E.J :+Y | T <+[+:.}+]+Y |+1+p.2+3+1.0 } (+6 _+ .E.",
"| 0 !+ +y   b | @ ,+4+5+#._+y 6+E.7+8+9+0+N a+K '.| 0 !+ +y   b ",
"b+s c+:+!+B d+v 7 6 e+6.: !+f+` y [ Y 6 o g+4 7.c b+s c+:+!+B d+",
"h+G i+L d.@ 0 E j+C.k+D.W.{+U.L ~+K C.@ l+m+' , n+h+G i+L d.@ 0 ",
"K o+# c ^+J p+{ q+r+s+N.] 7.( R.t+X.W u+U.s.I w v+K o+# c ^+J p+",
"w+x+b y+z+M A+E.g _ > W.7.B+C+D+, k E+F+G+H+I+# y w+x+b y+z+M A+",
"J+K+5+-.L+M+N+'+r., O+P+R.Q+y+R+S+T+U+T.r.@ 7+%+N.J+K+5+-.L+M+N+",
"(+V+3 &.W+@.(+X+Y K Y+u.N+R+^+Z+D.`+ @A+R W. ..@+@(+V+3 &.W+@.(+",
"U.@@> z #@$@I 6 7.K.%@r &@*@=@-@z.;@>@j+,@o.c+'@)@U.@@> z #@$@I ",
"/.!@C.# ~@>.;+r n {@5+t+T ]@^@/@(@_@:@^.<@{.2 t [@/.!@C.# ~@>.;+",
"U ~+N+}@|@6+2.( r+1@J.N.{+m+2@3@o+1+c+,+4@d {.c  .U ~+N+}@|@6+2.",
"'.5@6@' r T 7@8@Z r 9@2.4@o w 0@-.a@b@c@d@l+@+e@X+'.5@6@' r T 7@",
"D.p.{ Z f@g@{.T.{.< c@p h@e  .y )+e.i@] @ j@k@| l@D.p.{ Z f@g@{.",
"  . + @ # $ % & * = - ; > , ' ) ! ~ # { ] ^ / ( _   . + @ # $ % ",
": < [ } | 1 2 ( 3 4 5 6 7 8 9 0 a b c d e , f g h : < [ } | 1 2 ",
"> i _ j k l m n o , p q ' r s t u v w x y y z A B > i _ j k l m ",
"C D E y F G H I r J J K w K a L M 0 0 w N O P Q L C D E y F G H ",
"R S T M U V W t X Y Z `  ...+.@.#.$.%.U &.*.=.-.$.R S T M U V W ",
"#.;.>.,.'.).!.~.{.].^./.(._.r $.~ :.<.[.}.|.1.D 2.#.;.>.,.'.).!.",
"3.' 4.5.6.(.S 7.8.0 { 9.0.a._.b.c.&.d.e.f.h g.n h.3.' 4.5.6.(.S "};
